# xmcd
# 
# Track frame offsets:
#     150
#     19592
#     32915
#     47859
#     64611
#     79846
#     96782
#     117868
#     148935
#     167513
# 
# Disc length: 2425
# 
# Revision: 3
# Processed by: cddbd v1.5.2PL0 Copyright (c) Steve Scherf et al.
# Submitted via: fre:ac v1.0.31
# 
DISCID=8009770a
DTITLE=Lucero - Mi Secreto De Amor
DYEAR=2011
DGENRE=Ranchero
TTITLE0=Secreto De Amor
TTITLE1=Me Voy A Quitar De En Medio
TTITLE2=A Puro Dolor
TTITLE3=Amargo Adiós
TTITLE4=Te Sigo Amando
TTITLE5=A Dios Le Pido
TTITLE6=Si No Te Hubieras Ido
TTITLE7=Popurrí (Así Es La Vida, Suavemente, La Vida Es Un Carnaval)
TTITLE8=Costumbres
TTITLE9=Mi Bon Bon
EXTD=
EXTT0=
EXTT1=
EXTT2=
EXTT3=
EXTT4=
EXTT5=
EXTT6=
EXTT7=
EXTT8=
EXTT9=
PLAYORDER=
